<mxfile host="Electron" modified="2023-12-20T11:01:10.548Z" agent="Mozilla/5.0 (Macintosh; Intel Mac OS X 10_15_7) AppleWebKit/537.36 (KHTML, like Gecko) draw.io/22.1.11 Chrome/114.0.5735.289 Electron/25.9.8 Safari/537.36" etag="CcwHlyw_ZKTSV521FhEQ" version="22.1.11" type="device">
  <diagram name="Page-1" id="LVMZuCoAmGwGz7mD1jR8">
    <mxGraphModel dx="770" dy="479" grid="0" gridSize="10" guides="1" tooltips="1" connect="1" arrows="1" fold="1" page="1" pageScale="1" pageWidth="827" pageHeight="1169" math="0" shadow="0">
      <root>
        <mxCell id="0" />
        <mxCell id="1" parent="0" />
        <mxCell id="XPvJJOkBtZKh55Dg4RNt-3" value="" style="verticalLabelPosition=bottom;verticalAlign=top;html=1;shape=mxgraph.basic.diag_snip_rect;dx=6;whiteSpace=wrap;fillColor=#6d8764;fontColor=#ffffff;strokeColor=#3A5431;opacity=60;strokeWidth=6;" parent="1" vertex="1">
          <mxGeometry x="300" y="293" width="115" height="85" as="geometry" />
        </mxCell>
        <mxCell id="XPvJJOkBtZKh55Dg4RNt-4" value="" style="verticalLabelPosition=bottom;verticalAlign=top;html=1;shape=mxgraph.basic.diag_snip_rect;dx=6;whiteSpace=wrap;fontSize=12;fillColor=#AD5931;fontColor=#ffffff;strokeColor=#6D1F00;opacity=60;strokeWidth=6;" parent="1" vertex="1">
          <mxGeometry x="60" y="293" width="115" height="85" as="geometry" />
        </mxCell>
        <mxCell id="XPvJJOkBtZKh55Dg4RNt-5" value="&lt;font style=&quot;font-size: 10px;&quot;&gt;Client&lt;/font&gt;" style="text;html=1;align=center;verticalAlign=middle;resizable=0;points=[];autosize=1;strokeColor=none;fillColor=none;" parent="1" vertex="1">
          <mxGeometry x="90.49999999999999" y="318" width="50" height="30" as="geometry" />
        </mxCell>
        <mxCell id="XPvJJOkBtZKh55Dg4RNt-6" value="&amp;lt;bdsagroup8chirprazor&amp;gt;" style="text;html=1;align=center;verticalAlign=middle;resizable=0;points=[];autosize=1;strokeColor=none;fillColor=none;fontSize=10;" parent="1" vertex="1">
          <mxGeometry x="294" y="315" width="127" height="24" as="geometry" />
        </mxCell>
        <mxCell id="XPvJJOkBtZKh55Dg4RNt-8" value="Server" style="text;html=1;align=center;verticalAlign=middle;resizable=0;points=[];autosize=1;strokeColor=none;fillColor=none;fontSize=10;" parent="1" vertex="1">
          <mxGeometry x="331.5" y="329" width="50" height="30" as="geometry" />
        </mxCell>
        <mxCell id="XPvJJOkBtZKh55Dg4RNt-9" value="" style="edgeStyle=none;orthogonalLoop=1;jettySize=auto;html=1;rounded=0;dashed=1;" parent="1" edge="1">
          <mxGeometry width="100" relative="1" as="geometry">
            <mxPoint x="175" y="333.3" as="sourcePoint" />
            <mxPoint x="240" y="333" as="targetPoint" />
            <Array as="points" />
          </mxGeometry>
        </mxCell>
        <mxCell id="XPvJJOkBtZKh55Dg4RNt-10" value="HTTP" style="text;html=1;align=center;verticalAlign=middle;resizable=0;points=[];autosize=1;strokeColor=none;fillColor=none;fontSize=10;" parent="1" vertex="1">
          <mxGeometry x="220" y="330" width="50" height="30" as="geometry" />
        </mxCell>
        <mxCell id="XPvJJOkBtZKh55Dg4RNt-11" value="" style="edgeStyle=none;orthogonalLoop=1;jettySize=auto;html=1;rounded=0;strokeColor=default;endArrow=oval;endFill=1;exitX=0.004;exitY=0.469;exitDx=0;exitDy=0;exitPerimeter=0;entryX=0.44;entryY=0.1;entryDx=0;entryDy=0;entryPerimeter=0;" parent="1" source="XPvJJOkBtZKh55Dg4RNt-3" edge="1" target="XPvJJOkBtZKh55Dg4RNt-10">
          <mxGeometry width="100" relative="1" as="geometry">
            <mxPoint x="290" y="333.3" as="sourcePoint" />
            <mxPoint x="250" y="333" as="targetPoint" />
            <Array as="points" />
          </mxGeometry>
        </mxCell>
        <mxCell id="XPvJJOkBtZKh55Dg4RNt-12" value="&lt;font style=&quot;font-size: 8px;&quot;&gt;use&lt;/font&gt;" style="text;html=1;align=center;verticalAlign=middle;resizable=0;points=[];autosize=1;strokeColor=none;fillColor=none;" parent="1" vertex="1">
          <mxGeometry x="182" y="308" width="40" height="30" as="geometry" />
        </mxCell>
        <mxCell id="XPvJJOkBtZKh55Dg4RNt-14" value="" style="shape=cylinder3;whiteSpace=wrap;html=1;boundedLbl=1;backgroundOutline=1;size=15;fillColor=#647687;fontColor=#ffffff;strokeColor=#314354;opacity=60;strokeWidth=6;" parent="1" vertex="1">
          <mxGeometry x="540" y="268" width="90" height="130" as="geometry" />
        </mxCell>
        <mxCell id="XPvJJOkBtZKh55Dg4RNt-15" value="&amp;lt;mysqlserver&amp;gt;&lt;br style=&quot;font-size: 8px;&quot;&gt;Azure SQL Server" style="text;html=1;align=center;verticalAlign=middle;resizable=0;points=[];autosize=1;strokeColor=none;fillColor=none;fontSize=8;" parent="1" vertex="1">
          <mxGeometry x="540" y="312" width="90" height="30" as="geometry" />
        </mxCell>
        <mxCell id="XPvJJOkBtZKh55Dg4RNt-16" value="&amp;nbsp;Database" style="text;html=1;align=center;verticalAlign=middle;resizable=0;points=[];autosize=1;strokeColor=none;fillColor=none;fontSize=10;" parent="1" vertex="1">
          <mxGeometry x="550" y="338" width="70" height="30" as="geometry" />
        </mxCell>
        <mxCell id="XPvJJOkBtZKh55Dg4RNt-17" value="" style="edgeStyle=none;orthogonalLoop=1;jettySize=auto;html=1;rounded=0;strokeColor=default;endArrow=oval;endFill=1;exitX=1;exitY=0.5;exitDx=0;exitDy=0;exitPerimeter=0;" parent="1" edge="1">
          <mxGeometry width="100" relative="1" as="geometry">
            <mxPoint x="415" y="332.75" as="sourcePoint" />
            <mxPoint x="540" y="333.25" as="targetPoint" />
            <Array as="points" />
          </mxGeometry>
        </mxCell>
        <mxCell id="XPvJJOkBtZKh55Dg4RNt-18" value="Connection String" style="text;html=1;align=center;verticalAlign=middle;resizable=0;points=[];autosize=1;strokeColor=none;fillColor=none;fontSize=10;" parent="1" vertex="1">
          <mxGeometry x="430" y="329" width="100" height="30" as="geometry" />
        </mxCell>
      </root>
    </mxGraphModel>
  </diagram>
</mxfile>
